<svg width="929" height="919" viewBox="0 0 929 919" fill="none" xmlns="http://www.w3.org/2000/svg" style="/*! background: black; */">
    <g opacity="0.28" filter="url(#filter0_f)">
        <path d="M511.289 175.988C499.896 115.612 189.085 61.651 67.8406 283.987L33.3978 426.374L43.2536 572.251C79.6058 620.002 137.755 704.403 167.329 708.867C204.298 714.446 329.481 757.114 329.481 757.114C329.481 757.114 448.579 792.963 594.42 731.237C656.825 692.933 777.011 568.384 776.431 529.596C775.296 453.788 684.317 510.578 632.471 530.907C579.639 558.433 424.173 629.028 352.65 541.984C227.954 390.229 544.369 351.292 511.289 175.988Z" fill="#6F46FF" fill-opacity="0.2"/>
        <path d="M511.289 175.988C499.896 115.612 189.085 61.651 67.8406 283.987L33.3978 426.374L43.2536 572.251C79.6058 620.002 137.755 704.403 167.329 708.867C204.298 714.446 329.481 757.114 329.481 757.114C329.481 757.114 448.579 792.963 594.42 731.237C656.825 692.933 777.011 568.384 776.431 529.596C775.296 453.788 684.317 510.578 632.471 530.907C579.639 558.433 424.173 629.028 352.65 541.984C227.954 390.229 544.369 351.292 511.289 175.988Z" fill="url(#paint0_linear)"/>
        <path d="M511.289 175.988C499.896 115.612 189.085 61.651 67.8406 283.987L33.3978 426.374L43.2536 572.251C79.6058 620.002 137.755 704.403 167.329 708.867C204.298 714.446 329.481 757.114 329.481 757.114C329.481 757.114 448.579 792.963 594.42 731.237C656.825 692.933 777.011 568.384 776.431 529.596C775.296 453.788 684.317 510.578 632.471 530.907C579.639 558.433 424.173 629.028 352.65 541.984C227.954 390.229 544.369 351.292 511.289 175.988Z" fill="url(#paint1_linear)"/>
        <path d="M511.289 175.988C499.896 115.612 189.085 61.651 67.8406 283.987L33.3978 426.374L43.2536 572.251C79.6058 620.002 137.755 704.403 167.329 708.867C204.298 714.446 329.481 757.114 329.481 757.114C329.481 757.114 448.579 792.963 594.42 731.237C656.825 692.933 777.011 568.384 776.431 529.596C775.296 453.788 684.317 510.578 632.471 530.907C579.639 558.433 424.173 629.028 352.65 541.984C227.954 390.229 544.369 351.292 511.289 175.988Z" stroke="black"/>
    </g>
    <defs>
        <filter id="filter0_f" x="-113.381" y="-24.2998" width="1041.98" height="942.438" filterUnits="userSpaceOnUse" color-interpolation-filters="sRGB">
            <feFlood flood-opacity="0" result="BackgroundImageFix"/>
            <feBlend mode="normal" in="SourceGraphic" in2="BackgroundImageFix" result="shape"/>
            <feGaussianBlur stdDeviation="60" result="effect1_foregroundBlur"/>
        </filter>
        <linearGradient id="paint0_linear" x1="450.391" y1="129.504" x2="389.806" y2="839.819" gradientUnits="userSpaceOnUse">
            <stop stop-color="#724AFF"/>
            <stop offset="1" stop-color="white" stop-opacity="0"/>
        </linearGradient>
        <linearGradient id="paint1_linear" x1="716.944" y1="675.763" x2="269.804" y2="382.65" gradientUnits="userSpaceOnUse">
            <stop stop-color="#1B1A1C"/>
            <stop offset="1" stop-color="#1B1A1C" stop-opacity="0"/>
        </linearGradient>
    </defs>
</svg>