<svg width="255" height="827" viewBox="0 0 255 827" fill="none" xmlns="http://www.w3.org/2000/svg">
<g clip-path="url(#clip0_655_11771)">
<rect width="255" height="827" fill="#2D005B"/>
<g opacity="0.28" filter="url(#filter0_f_655_11771)">
<path d="M339.904 -55.3094C322.841 -116.583 -2.5 -144.899 -108 95.1014V394.601C-66.3027 440.657 1.10172 522.599 32 524.601C70.6228 527.104 203.5 560.101 203.5 560.101C203.5 560.101 329.5 586.601 474.5 510.101C535.5 465.101 648.511 326.059 644.5 286.101C636.66 208.007 547.814 274.588 496.125 300.119C444.051 333.158 289.903 419.654 208.471 336.162C66.5 190.601 389.448 122.601 339.904 -55.3094Z" fill="#6F46FF" fill-opacity="0.2"/>
<path d="M339.904 -55.3094C322.841 -116.583 -2.5 -144.899 -108 95.1014V394.601C-66.3027 440.657 1.10172 522.599 32 524.601C70.6228 527.104 203.5 560.101 203.5 560.101C203.5 560.101 329.5 586.601 474.5 510.101C535.5 465.101 648.511 326.059 644.5 286.101C636.66 208.007 547.814 274.588 496.125 300.119C444.051 333.158 289.903 419.654 208.471 336.162C66.5 190.601 389.448 122.601 339.904 -55.3094Z" fill="url(#paint0_linear_655_11771)"/>
<path d="M339.904 -55.3094C322.841 -116.583 -2.5 -144.899 -108 95.1014V394.601C-66.3027 440.657 1.10172 522.599 32 524.601C70.6228 527.104 203.5 560.101 203.5 560.101C203.5 560.101 329.5 586.601 474.5 510.101C535.5 465.101 648.511 326.059 644.5 286.101C636.66 208.007 547.814 274.588 496.125 300.119C444.051 333.158 289.903 419.654 208.471 336.162C66.5 190.601 389.448 122.601 339.904 -55.3094Z" fill="url(#paint1_linear_655_11771)"/>
<path d="M339.904 -55.3094C322.841 -116.583 -2.5 -144.899 -108 95.1014V394.601C-66.3027 440.657 1.10172 522.599 32 524.601C70.6228 527.104 203.5 560.101 203.5 560.101C203.5 560.101 329.5 586.601 474.5 510.101C535.5 465.101 648.511 326.059 644.5 286.101C636.66 208.007 547.814 274.588 496.125 300.119C444.051 333.158 289.903 419.654 208.471 336.162C66.5 190.601 389.448 122.601 339.904 -55.3094Z" stroke="black"/>
</g>
</g>
<defs>
<filter id="filter0_f_655_11771" x="-188.5" y="-178.5" width="913.604" height="823.54" filterUnits="userSpaceOnUse" color-interpolation-filters="sRGB">
<feFlood flood-opacity="0" result="BackgroundImageFix"/>
<feBlend mode="normal" in="SourceGraphic" in2="BackgroundImageFix" result="shape"/>
<feGaussianBlur stdDeviation="40" result="effect1_foregroundBlur_655_11771"/>
</filter>
<linearGradient id="paint0_linear_655_11771" x1="273" y1="-97.8986" x2="273" y2="640.102" gradientUnits="userSpaceOnUse">
<stop stop-color="#724AFF"/>
<stop offset="1" stop-color="white" stop-opacity="0"/>
</linearGradient>
<linearGradient id="paint1_linear_655_11771" x1="596" y1="442.102" x2="109" y2="179.101" gradientUnits="userSpaceOnUse">
<stop stop-color="#1B1A1C"/>
<stop offset="1" stop-color="#1B1A1C" stop-opacity="0"/>
</linearGradient>
<clipPath id="clip0_655_11771">
<rect width="255" height="827" fill="white"/>
</clipPath>
</defs>
</svg>
