<svg width="1124" height="163" viewBox="0 0 1124 163" fill="none" xmlns="http://www.w3.org/2000/svg">
<path d="M134.184 72.5652L59.8489 86.3747L1 80.3158V163H1123V5.64828L1026.21 38.7143L951.874 16.3333L877.538 27.7619L803.203 16.3333L728.867 41.0952L654.532 3L580.197 16.3333L505.861 55.0911L431.526 17.2857L357.19 98.2795L282.855 85.8985L208.52 109.708L134.184 72.5652Z" fill="url(#paint0_linear_1235_191)"/>
<path d="M134.184 96.5938L59.8489 106.734L1 102.285V163H1123V47.4567L1026.21 71.7371L951.874 55.3027L877.538 63.6947L803.203 55.3027L728.867 73.4854L654.532 45.5121L580.197 55.3027L505.861 83.7626L431.526 56.0021L357.19 115.476L282.855 106.384L208.52 123.868L134.184 96.5938Z" fill="url(#paint1_linear_1235_191)"/>
<path d="M134.184 118.001L59.8489 124.872L1 121.858V163H1123V84.7042L1026.21 101.157L951.874 90.0209L877.538 95.7076L803.203 90.0209L728.867 102.342L654.532 83.3865L580.197 90.0209L505.861 109.306L431.526 90.4948L357.19 130.796L282.855 124.636L208.52 136.483L134.184 118.001Z" fill="url(#paint2_linear_1235_191)"/>
<path d="M1 80.3158L59.8489 86.8509L134.184 72.5652L208.52 109.708L282.855 85.8986L357.19 98.2795L431.526 17.2857L505.861 55.0911L580.197 16.3333L654.532 3L728.867 41.0952L803.203 16.3333L877.538 27.7619L951.874 16.3333L1026.21 38.2381L1123 5.64828" stroke="#448AFF" stroke-width="4"/>
<defs>
<linearGradient id="paint0_linear_1235_191" x1="562" y1="3" x2="562.032" y2="163" gradientUnits="userSpaceOnUse">
<stop stop-color="#448AFF" stop-opacity="0.12"/>
<stop offset="1" stop-color="#448AFF" stop-opacity="0"/>
</linearGradient>
<linearGradient id="paint1_linear_1235_191" x1="562" y1="45.5121" x2="562.017" y2="163" gradientUnits="userSpaceOnUse">
<stop stop-color="#448AFF" stop-opacity="0.12"/>
<stop offset="1" stop-color="#448AFF" stop-opacity="0"/>
</linearGradient>
<linearGradient id="paint2_linear_1235_191" x1="562" y1="83.3865" x2="562.008" y2="163" gradientUnits="userSpaceOnUse">
<stop stop-color="#02C076" stop-opacity="0.12"/>
<stop offset="1" stop-color="#02C076" stop-opacity="0"/>
</linearGradient>
</defs>
</svg>
