<svg width="177" height="132" viewBox="0 0 177 132" fill="none" xmlns="http://www.w3.org/2000/svg">
<path d="M0.288352 116.818L4.00213 123.401V127H6.13991V123.401L9.85369 116.818H7.44247L5.12074 121.203H5.02131L2.69957 116.818H0.288352ZM13.054 127.149C15.3708 127.149 16.8126 125.563 16.8126 123.212C16.8126 120.845 15.3708 119.264 13.054 119.264C10.7373 119.264 9.29553 120.845 9.29553 123.212C9.29553 125.563 10.7373 127.149 13.054 127.149ZM13.064 125.509C11.9951 125.509 11.4482 124.529 11.4482 123.197C11.4482 121.864 11.9951 120.88 13.064 120.88C14.113 120.88 14.6599 121.864 14.6599 123.197C14.6599 124.529 14.113 125.509 13.064 125.509ZM23.2867 123.749C23.2917 124.773 22.5907 125.31 21.83 125.31C21.0296 125.31 20.5126 124.748 20.5076 123.848V119.364H18.3897V124.226C18.3947 126.011 19.4387 127.099 20.9749 127.099C22.1234 127.099 22.9487 126.508 23.2917 125.613H23.3712V127H25.4046V119.364H23.2867V123.749ZM32.8568 122.585C32.8618 121.601 33.4634 121.024 34.3284 121.024C35.1885 121.024 35.6956 121.576 35.6906 122.516V127H37.8085V122.138C37.8135 120.348 36.7595 119.264 35.1686 119.264C34.0102 119.264 33.2347 119.811 32.8866 120.711H32.7972V116.818H30.7389V127H32.8568V122.585ZM41.8528 127.144C42.9814 127.144 43.7122 126.652 44.085 125.941H44.1447V127H46.1532V121.849C46.1532 120.03 44.612 119.264 42.9118 119.264C41.0822 119.264 39.8791 120.139 39.5858 121.531L41.5446 121.69C41.6887 121.183 42.1412 120.81 42.9018 120.81C43.6227 120.81 44.0353 121.173 44.0353 121.8V121.83C44.0353 122.322 43.5133 122.386 42.1859 122.516C40.6745 122.655 39.3173 123.162 39.3173 124.867C39.3173 126.379 40.3961 127.144 41.8528 127.144ZM42.4593 125.683C41.8081 125.683 41.3407 125.379 41.3407 124.798C41.3407 124.201 41.8329 123.908 42.5787 123.803C43.041 123.739 43.7967 123.629 44.0502 123.46V124.271C44.0502 125.071 43.389 125.683 42.4593 125.683ZM54.8422 119.364H52.6L51.0191 124.827H50.9395L49.3536 119.364H47.1164L49.7861 127H52.1725L54.8422 119.364ZM59.3464 127.149C61.2356 127.149 62.5083 126.229 62.8066 124.812L60.8478 124.683C60.634 125.265 60.0871 125.568 59.3812 125.568C58.3222 125.568 57.6511 124.867 57.6511 123.729V123.724H62.8514V123.142C62.8514 120.547 61.2803 119.264 59.2619 119.264C57.0147 119.264 55.558 120.86 55.558 123.217C55.558 125.638 56.9948 127.149 59.3464 127.149ZM57.6511 122.411C57.6958 121.541 58.357 120.845 59.2967 120.845C60.2164 120.845 60.8528 121.501 60.8577 122.411H57.6511ZM69.9916 122.585C69.9966 121.601 70.5832 121.024 71.4383 121.024C72.2885 121.024 72.8005 121.581 72.7956 122.516V127H74.9135V122.138C74.9135 120.358 73.8694 119.264 72.2785 119.264C71.145 119.264 70.3247 119.821 69.9816 120.711H69.8922V119.364H67.8737V127H69.9916V122.585ZM80.233 127.149C82.5497 127.149 83.9915 125.563 83.9915 123.212C83.9915 120.845 82.5497 119.264 80.233 119.264C77.9162 119.264 76.4744 120.845 76.4744 123.212C76.4744 125.563 77.9162 127.149 80.233 127.149ZM80.2429 125.509C79.174 125.509 78.6271 124.529 78.6271 123.197C78.6271 121.864 79.174 120.88 80.2429 120.88C81.2919 120.88 81.8388 121.864 81.8388 123.197C81.8388 124.529 81.2919 125.509 80.2429 125.509ZM93.0706 119.364H91.6338V117.534H89.5159V119.364H88.4719V120.955H89.5159V124.932C89.506 126.428 90.5252 127.169 92.0614 127.104C92.6083 127.085 92.9961 126.975 93.2098 126.906L92.8767 125.33C92.7723 125.349 92.5486 125.399 92.3498 125.399C91.9272 125.399 91.6338 125.24 91.6338 124.653V120.955H93.0706V119.364ZM94.6502 127H96.7681V122.68C96.7681 121.74 97.4542 121.094 98.3889 121.094C98.6822 121.094 99.0849 121.143 99.2838 121.208V119.329C99.0948 119.284 98.8314 119.254 98.6176 119.254C97.7625 119.254 97.0615 119.751 96.7831 120.696H96.7035V119.364H94.6502V127ZM102.538 127.144C103.666 127.144 104.397 126.652 104.77 125.941H104.829V127H106.838V121.849C106.838 120.03 105.297 119.264 103.597 119.264C101.767 119.264 100.564 120.139 100.271 121.531L102.229 121.69C102.374 121.183 102.826 120.81 103.587 120.81C104.307 120.81 104.72 121.173 104.72 121.8V121.83C104.72 122.322 104.198 122.386 102.871 122.516C101.359 122.655 100.002 123.162 100.002 124.867C100.002 126.379 101.081 127.144 102.538 127.144ZM103.144 125.683C102.493 125.683 102.026 125.379 102.026 124.798C102.026 124.201 102.518 123.908 103.263 123.803C103.726 123.739 104.481 123.629 104.735 123.46V124.271C104.735 125.071 104.074 125.683 103.144 125.683ZM110.799 122.585C110.804 121.601 111.391 121.024 112.246 121.024C113.096 121.024 113.608 121.581 113.603 122.516V127H115.721V122.138C115.721 120.358 114.677 119.264 113.086 119.264C111.952 119.264 111.132 119.821 110.789 120.711H110.7V119.364H108.681V127H110.799V122.585ZM123.944 121.541C123.755 120.134 122.621 119.264 120.692 119.264C118.739 119.264 117.451 120.169 117.456 121.641C117.451 122.784 118.172 123.525 119.663 123.823L120.986 124.087C121.652 124.221 121.955 124.464 121.965 124.847C121.955 125.3 121.463 125.623 120.722 125.623C119.967 125.623 119.464 125.3 119.335 124.678L117.252 124.788C117.451 126.249 118.694 127.149 120.717 127.149C122.696 127.149 124.113 126.14 124.118 124.634C124.113 123.53 123.392 122.869 121.91 122.565L120.528 122.287C119.817 122.133 119.554 121.889 119.559 121.521C119.554 121.064 120.071 120.766 120.727 120.766C121.463 120.766 121.9 121.168 122.005 121.661L123.944 121.541ZM127.829 127.144C128.958 127.144 129.688 126.652 130.061 125.941H130.121V127H132.129V121.849C132.129 120.03 130.588 119.264 128.888 119.264C127.058 119.264 125.855 120.139 125.562 121.531L127.521 121.69C127.665 121.183 128.117 120.81 128.878 120.81C129.599 120.81 130.012 121.173 130.012 121.8V121.83C130.012 122.322 129.489 122.386 128.162 122.516C126.651 122.655 125.293 123.162 125.293 124.867C125.293 126.379 126.372 127.144 127.829 127.144ZM128.436 125.683C127.784 125.683 127.317 125.379 127.317 124.798C127.317 124.201 127.809 123.908 128.555 123.803C129.017 123.739 129.773 123.629 130.026 123.46V124.271C130.026 125.071 129.365 125.683 128.436 125.683ZM137.423 127.149C139.456 127.149 140.734 125.956 140.833 124.201H138.835C138.71 125.016 138.174 125.474 137.448 125.474C136.458 125.474 135.817 124.643 135.817 123.182C135.817 121.74 136.463 120.915 137.448 120.915C138.223 120.915 138.72 121.427 138.835 122.188H140.833C140.744 120.423 139.406 119.264 137.413 119.264C135.096 119.264 133.664 120.87 133.664 123.212C133.664 125.533 135.071 127.149 137.423 127.149ZM146.451 119.364H145.014V117.534H142.896V119.364H141.852V120.955H142.896V124.932C142.886 126.428 143.906 127.169 145.442 127.104C145.989 127.085 146.377 126.975 146.59 126.906L146.257 125.33C146.153 125.349 145.929 125.399 145.73 125.399C145.308 125.399 145.014 125.24 145.014 124.653V120.955H146.451V119.364ZM148.031 127H150.149V119.364H148.031V127ZM149.095 118.379C149.726 118.379 150.243 117.897 150.243 117.305C150.243 116.719 149.726 116.237 149.095 116.237C148.468 116.237 147.951 116.719 147.951 117.305C147.951 117.897 148.468 118.379 149.095 118.379ZM155.495 127.149C157.812 127.149 159.254 125.563 159.254 123.212C159.254 120.845 157.812 119.264 155.495 119.264C153.179 119.264 151.737 120.845 151.737 123.212C151.737 125.563 153.179 127.149 155.495 127.149ZM155.505 125.509C154.437 125.509 153.89 124.529 153.89 123.197C153.89 121.864 154.437 120.88 155.505 120.88C156.554 120.88 157.101 121.864 157.101 123.197C157.101 124.529 156.554 125.509 155.505 125.509ZM162.949 122.585C162.954 121.601 163.541 121.024 164.396 121.024C165.246 121.024 165.758 121.581 165.753 122.516V127H167.871V122.138C167.871 120.358 166.827 119.264 165.236 119.264C164.102 119.264 163.282 119.821 162.939 120.711H162.85V119.364H160.831V127H162.949V122.585ZM176.094 121.541C175.905 120.134 174.771 119.264 172.842 119.264C170.889 119.264 169.601 120.169 169.606 121.641C169.601 122.784 170.322 123.525 171.813 123.823L173.136 124.087C173.802 124.221 174.105 124.464 174.115 124.847C174.105 125.3 173.613 125.623 172.872 125.623C172.117 125.623 171.614 125.3 171.485 124.678L169.402 124.788C169.601 126.249 170.844 127.149 172.867 127.149C174.846 127.149 176.263 126.14 176.268 124.634C176.263 123.53 175.542 122.869 174.06 122.565L172.678 122.287C171.967 122.133 171.704 121.889 171.709 121.521C171.704 121.064 172.221 120.766 172.877 120.766C173.613 120.766 174.05 121.168 174.155 121.661L176.094 121.541Z" fill="#673DFD" fill-opacity="0.16"/>
<rect x="37" width="96" height="96" rx="12" fill="#673DFD" fill-opacity="0.06"/>
<path d="M87.3734 45.5998C82.6267 44.0265 80.3334 43.0398 80.3334 40.5332C80.3334 37.8132 83.2934 36.8265 85.1601 36.8265C88.6534 36.8265 89.9334 39.4665 90.2267 40.3998L94.4401 38.6132C94.0401 37.4132 92.2534 33.4932 87.6667 32.6398V29.3332H82.3334V32.6932C75.7201 34.1865 75.6934 40.3198 75.6934 40.5865C75.6934 46.6398 81.6934 48.3465 84.6267 49.4132C88.8401 50.9065 90.7067 52.2665 90.7067 54.8265C90.7067 57.8398 87.9067 59.1198 85.4267 59.1198C80.5734 59.1198 79.1867 54.1332 79.0267 53.5465L74.6001 55.3332C76.2801 61.1732 80.6801 62.7465 82.3334 63.2265V66.6665H87.6667V63.3598C88.7334 63.1198 95.4001 61.7865 95.4001 54.7732C95.4001 51.0665 93.7734 47.8132 87.3734 45.5998ZM61.0001 71.9998H55.6667V55.9998H71.6667V61.3332H65.0534C69.3467 67.7598 76.6801 71.9998 85.0001 71.9998C98.2534 71.9998 109 61.2532 109 47.9998H114.333C114.333 64.2132 101.213 77.3332 85.0001 77.3332C75.0801 77.3332 66.3067 72.3998 61.0001 64.8798V71.9998ZM55.6667 47.9998C55.6667 31.7865 68.7867 18.6665 85.0001 18.6665C94.9201 18.6665 103.693 23.5998 109 31.1198V23.9998H114.333V39.9998H98.3334V34.6665H104.947C100.653 28.2398 93.3201 23.9998 85.0001 23.9998C71.7467 23.9998 61.0001 34.7465 61.0001 47.9998H55.6667Z" fill="#673DFD" fill-opacity="0.12"/>
</svg>
