<svg width="20" height="17" viewBox="0 0 20 17" fill="none" xmlns="http://www.w3.org/2000/svg">
<path d="M10 3.83333C12.3 3.83333 14.1667 5.7 14.1667 8C14.1667 8.54167 14.0584 9.05 13.8667 9.525L16.3 11.9583C17.5584 10.9083 18.55 9.55 19.1584 8C17.7167 4.34167 14.1584 1.75 9.99171 1.75C8.82504 1.75 7.70837 1.95833 6.67504 2.33333L8.47504 4.13333C8.95004 3.94167 9.45837 3.83333 10 3.83333ZM1.66671 1.55833L3.56671 3.45833L3.95004 3.84167C2.56671 4.91667 1.48337 6.35 0.833374 8C2.27504 11.6583 5.83337 14.25 10 14.25C11.2917 14.25 12.525 14 13.65 13.55L14 13.9L16.4417 16.3333L17.5 15.275L2.72504 0.5L1.66671 1.55833ZM6.27504 6.16667L7.56671 7.45833C7.52504 7.63333 7.50004 7.81667 7.50004 8C7.50004 9.38333 8.61671 10.5 10 10.5C10.1834 10.5 10.3667 10.475 10.5417 10.4333L11.8334 11.725C11.275 12 10.6584 12.1667 10 12.1667C7.70004 12.1667 5.83337 10.3 5.83337 8C5.83337 7.34167 6.00004 6.725 6.27504 6.16667V6.16667ZM9.86671 5.51667L12.4917 8.14167L12.5084 8.00833C12.5084 6.625 11.3917 5.50833 10.0084 5.50833L9.86671 5.51667Z" fill="#673DFD"/>
</svg>
