<svg width="14" height="14" viewBox="0 0 14 14" fill="none" xmlns="http://www.w3.org/2000/svg">
<path d="M6.99993 0.233252C3.26471 0.233252 0.233267 3.26469 0.233267 6.99992C0.233267 10.7351 3.26471 13.7666 6.99993 13.7666C10.7352 13.7666 13.7666 10.7351 13.7666 6.99992C13.7666 3.26469 10.7352 0.233252 6.99993 0.233252ZM1.7666 6.99992C1.7666 4.10848 4.1085 1.76659 6.99993 1.76659C8.16958 1.76659 9.24724 2.15145 10.1153 2.80314L2.80316 10.1153C2.15147 9.24722 1.7666 8.16956 1.7666 6.99992ZM6.99993 12.2333C5.83029 12.2333 4.75263 11.8484 3.88458 11.1967L11.1967 3.88456C11.8484 4.75262 12.2333 5.83027 12.2333 6.99992C12.2333 9.89136 9.89137 12.2333 6.99993 12.2333Z" fill="white" stroke="white" stroke-width="0.2"/>
</svg>
