<svg width="12" height="12" viewBox="0 0 12 12" fill="none" xmlns="http://www.w3.org/2000/svg">
<path d="M11.2501 0.758309C10.9251 0.433309 10.4001 0.433309 10.0751 0.758309L6.0001 4.82498L1.9251 0.749976C1.6001 0.424976 1.0751 0.424976 0.750098 0.749976C0.425098 1.07498 0.425098 1.59998 0.750098 1.92498L4.8251 5.99998L0.750098 10.075C0.425098 10.4 0.425098 10.925 0.750098 11.25C1.0751 11.575 1.6001 11.575 1.9251 11.25L6.0001 7.17498L10.0751 11.25C10.4001 11.575 10.9251 11.575 11.2501 11.25C11.5751 10.925 11.5751 10.4 11.2501 10.075L7.1751 5.99998L11.2501 1.92498C11.5668 1.60831 11.5668 1.07498 11.2501 0.758309Z" fill="#0A68F7"/>
</svg>
