<svg width="18" height="18" viewBox="0 0 18 18" fill="none" xmlns="http://www.w3.org/2000/svg">
<path d="M8.99996 0.666626C4.39996 0.666626 0.666626 4.39996 0.666626 8.99996C0.666626 13.6 4.39996 17.3333 8.99996 17.3333C13.6 17.3333 17.3333 13.6 17.3333 8.99996C17.3333 4.39996 13.6 0.666626 8.99996 0.666626ZM9.73329 13.8V14.8333H8.27496V13.7583C7.65829 13.6083 6.28329 13.1166 5.75829 11.2916L7.13329 10.7333C7.18329 10.9166 7.61663 12.475 9.13329 12.475C9.90829 12.475 10.7833 12.075 10.7833 11.1333C10.7833 10.3333 10.2 9.91663 8.88329 9.44163C7.96663 9.11663 6.09163 8.58329 6.09163 6.68329C6.09163 6.59996 6.09996 4.68329 8.27496 4.21663V3.16663H9.73329V4.19996C11.2666 4.46663 11.825 5.69163 11.95 6.05829L10.6333 6.61663C10.5416 6.32496 10.1416 5.49996 9.04996 5.49996C8.46663 5.49996 7.54163 5.80829 7.54163 6.65829C7.54163 7.44996 8.25829 7.74996 9.74163 8.24163C11.7416 8.93329 12.25 9.94996 12.25 11.1166C12.25 13.3083 10.1666 13.725 9.73329 13.8Z" fill="white"/>
</svg>
