<svg width="20" height="16" viewBox="0 0 20 16" fill="none" xmlns="http://www.w3.org/2000/svg">
<path d="M3.32598 7.84847L0.162173 11.0237C-0.0540578 11.2513 -0.0540578 11.6041 0.162173 11.8317L3.32598 15.0069C3.67878 15.371 4.29333 15.1093 4.29333 14.6085V12.56H11.1331C11.759 12.56 12.2711 12.0479 12.2711 11.422C12.2711 10.796 11.759 10.2839 11.1331 10.2839H4.29333V8.24679C4.29333 7.73467 3.67878 7.48429 3.32598 7.84847V7.84847ZM19.8392 4.1953L16.6754 1.02012C16.3226 0.655939 15.7081 0.917692 15.7081 1.41844V3.45556H8.85695C8.23102 3.45556 7.71889 3.96769 7.71889 4.59362C7.71889 5.21956 8.23102 5.73168 8.85695 5.73168H15.6967V7.76881C15.6967 8.28094 16.3112 8.53131 16.664 8.16713L19.8278 4.99194C20.0555 4.77571 20.0555 4.41153 19.8392 4.1953V4.1953Z" fill="white"/>
</svg>
