<svg width="20" height="20" viewBox="0 0 20 20" fill="none" xmlns="http://www.w3.org/2000/svg">
<path d="M10.7418 9.25016C9.2585 8.7585 8.54183 8.45016 8.54183 7.66683C8.54183 6.81683 9.46683 6.5085 10.0502 6.5085C11.1418 6.5085 11.5418 7.3335 11.6335 7.62516L12.9502 7.06683C12.8252 6.69183 12.2668 5.46683 10.8335 5.20016V4.16683H9.16683V5.21683C7.10016 5.6835 7.09183 7.60016 7.09183 7.6835C7.09183 9.57516 8.96683 10.1085 9.88349 10.4418C11.2002 10.9085 11.7835 11.3335 11.7835 12.1335C11.7835 13.0752 10.9085 13.4752 10.1335 13.4752C8.61683 13.4752 8.1835 11.9168 8.1335 11.7335L6.75016 12.2918C7.27516 14.1168 8.65016 14.6085 9.16683 14.7585V15.8335H10.8335V14.8002C11.1668 14.7252 13.2502 14.3085 13.2502 12.1168C13.2502 10.9585 12.7418 9.94183 10.7418 9.25016ZM2.50016 17.5002H0.833496V12.5002H5.8335V14.1668H3.76683C5.1085 16.1752 7.40016 17.5002 10.0002 17.5002C14.1418 17.5002 17.5002 14.1418 17.5002 10.0002H19.1668C19.1668 15.0668 15.0668 19.1668 10.0002 19.1668C6.90016 19.1668 4.1585 17.6252 2.50016 15.2752V17.5002ZM0.833496 10.0002C0.833496 4.9335 4.9335 0.833496 10.0002 0.833496C13.1002 0.833496 15.8418 2.37516 17.5002 4.72516V2.50016H19.1668V7.50016H14.1668V5.8335H16.2335C14.8918 3.82516 12.6002 2.50016 10.0002 2.50016C5.8585 2.50016 2.50016 5.8585 2.50016 10.0002H0.833496Z" fill="white"/>
</svg>
