<svg width="48" height="24" viewBox="0 0 48 24" fill="none" xmlns="http://www.w3.org/2000/svg">
<path d="M35.6668 0.333496H26.3334V5.00016H35.6668C39.5168 5.00016 42.6668 8.15016 42.6668 12.0002C42.6668 15.8502 39.5168 19.0002 35.6668 19.0002H26.3334V23.6668H35.6668C42.1068 23.6668 47.3334 18.4402 47.3334 12.0002C47.3334 5.56016 42.1068 0.333496 35.6668 0.333496ZM21.6667 19.0002H12.3334C8.48342 19.0002 5.33342 15.8502 5.33342 12.0002C5.33342 8.15016 8.48342 5.00016 12.3334 5.00016H21.6667V0.333496H12.3334C5.89342 0.333496 0.666748 5.56016 0.666748 12.0002C0.666748 18.4402 5.89342 23.6668 12.3334 23.6668H21.6667V19.0002ZM14.6667 9.66683H33.3334V14.3335H14.6667V9.66683Z" fill="white"/>
</svg>
