<svg width="20" height="12" viewBox="0 0 20 12" fill="none" xmlns="http://www.w3.org/2000/svg">
<path d="M17.5006 0.166626V11.8333H19.1673V0.166626H17.5006ZM14.1673 11.8333H15.834V0.166626H14.1673V11.8333ZM11.6673 0.166626H1.66732C1.20898 0.166626 0.833984 0.541626 0.833984 0.999959V11C0.833984 11.4583 1.20898 11.8333 1.66732 11.8333H11.6673C12.1256 11.8333 12.5007 11.4583 12.5007 11V0.999959C12.5007 0.541626 12.1256 0.166626 11.6673 0.166626ZM6.66732 2.45829C7.70065 2.45829 8.54232 3.29996 8.54232 4.33329C8.54232 5.36663 7.70065 6.20829 6.66732 6.20829C5.63398 6.20829 4.79232 5.36663 4.79232 4.33329C4.79232 3.29996 5.63398 2.45829 6.66732 2.45829ZM10.4173 10.1666H2.91732V9.54163C2.91732 8.29163 5.41732 7.66663 6.66732 7.66663C7.91732 7.66663 10.4173 8.29163 10.4173 9.54163V10.1666Z" fill="white"/>
</svg>
