<svg width="18" height="15" viewBox="0 0 18 15" fill="none" xmlns="http://www.w3.org/2000/svg">
<path d="M7.33333 6.99998C9.17428 6.99998 10.6667 5.5076 10.6667 3.66665C10.6667 1.8257 9.17428 0.333313 7.33333 0.333313C5.49238 0.333313 4 1.8257 4 3.66665C4 5.5076 5.49238 6.99998 7.33333 6.99998Z" fill="white"/>
<path d="M7.89101 7.84998C7.70768 7.84165 7.52435 7.83331 7.33268 7.83331C5.31602 7.83331 3.43268 8.39165 1.82435 9.34998C1.09102 9.78331 0.666016 10.6 0.666016 11.4583V13.6666H8.38268C7.72435 12.725 7.33268 11.575 7.33268 10.3333C7.33268 9.44165 7.54102 8.60831 7.89101 7.84998Z" fill="white"/>
<path d="M16.2906 10.3333C16.2906 10.15 16.2656 9.98329 16.2406 9.80829L17.1906 8.96663L16.3573 7.52496L15.149 7.93329C14.8823 7.70829 14.5823 7.53329 14.249 7.40829L13.999 6.16663H12.3323L12.0823 7.40829C11.749 7.53329 11.449 7.70829 11.1823 7.93329L9.97396 7.52496L9.14062 8.96663L10.0906 9.80829C10.0656 9.98329 10.0406 10.15 10.0406 10.3333C10.0406 10.5166 10.0656 10.6833 10.0906 10.8583L9.14062 11.7L9.97396 13.1416L11.1823 12.7333C11.449 12.9583 11.749 13.1333 12.0823 13.2583L12.3323 14.5H13.999L14.249 13.2583C14.5823 13.1333 14.8823 12.9583 15.149 12.7333L16.3573 13.1416L17.1906 11.7L16.2406 10.8583C16.2656 10.6833 16.2906 10.5166 16.2906 10.3333ZM13.1656 12C12.249 12 11.499 11.25 11.499 10.3333C11.499 9.41663 12.249 8.66663 13.1656 8.66663C14.0823 8.66663 14.8323 9.41663 14.8323 10.3333C14.8323 11.25 14.0823 12 13.1656 12Z" fill="white"/>
</svg>
