<svg width="20" height="16" viewBox="0 0 20 16" fill="none" xmlns="http://www.w3.org/2000/svg">
<path fill-rule="evenodd" clip-rule="evenodd" d="M1.66667 0.5H18.3333C19.25 0.5 20 1.25 20 2.16667L19.9917 13.8333C19.9917 14.75 19.25 15.5 18.3333 15.5H1.66667C0.75 15.5 0 14.75 0 13.8333V2.16667C0 1.25 0.75 0.5 1.66667 0.5ZM9.16667 5.5C9.16667 4.11667 8.05 3 6.66667 3C5.28333 3 4.16667 4.11667 4.16667 5.5C4.16667 6.88333 5.28333 8 6.66667 8C8.05 8 9.16667 6.88333 9.16667 5.5ZM1.66667 12.1667V13H11.6667V12.1667C11.6667 10.5 8.33333 9.58333 6.66667 9.58333C5 9.58333 1.66667 10.5 1.66667 12.1667ZM16.0664 11.2029V12H14.9414V11.1707C14.4657 11.055 13.405 10.6757 13 9.26786L14.0607 8.83714C14.0993 8.97857 14.4336 10.1807 15.6036 10.1807C16.2014 10.1807 16.8764 9.87214 16.8764 9.14571C16.8764 8.52857 16.4264 8.20714 15.4107 7.84071C15.3698 7.8262 15.3264 7.81115 15.2809 7.79538C14.5409 7.53883 13.2571 7.09371 13.2571 5.71286C13.2571 5.64857 13.2636 4.17 14.9414 3.81V3H16.0664V3.79714C17.2493 4.00286 17.68 4.94786 17.7764 5.23071L16.7607 5.66143C16.69 5.43643 16.3814 4.8 15.5393 4.8C15.0893 4.8 14.3757 5.03786 14.3757 5.69357C14.3757 6.30429 14.9286 6.53571 16.0729 6.915C17.6157 7.44857 18.0079 8.23286 18.0079 9.13286C18.0079 10.8236 16.4007 11.145 16.0664 11.2029Z" fill="white"/>
</svg>
