<svg width="12" height="15" viewBox="0 0 12 15" fill="none" xmlns="http://www.w3.org/2000/svg">
<path d="M9.99996 5.33329H9.33329V3.99996C9.33329 2.15996 7.83996 0.666626 5.99996 0.666626C4.15996 0.666626 2.66663 2.15996 2.66663 3.99996V5.33329H1.99996C1.26663 5.33329 0.666626 5.93329 0.666626 6.66663V13.3333C0.666626 14.0666 1.26663 14.6666 1.99996 14.6666H9.99996C10.7333 14.6666 11.3333 14.0666 11.3333 13.3333V6.66663C11.3333 5.93329 10.7333 5.33329 9.99996 5.33329ZM5.99996 11.3333C5.26663 11.3333 4.66663 10.7333 4.66663 9.99996C4.66663 9.26663 5.26663 8.66663 5.99996 8.66663C6.73329 8.66663 7.33329 9.26663 7.33329 9.99996C7.33329 10.7333 6.73329 11.3333 5.99996 11.3333ZM8.06663 5.33329H3.93329V3.99996C3.93329 2.85996 4.85996 1.93329 5.99996 1.93329C7.13996 1.93329 8.06663 2.85996 8.06663 3.99996V5.33329Z" fill="#0A68F7"/>
</svg>
