<svg width="19" height="14" viewBox="0 0 19 14" fill="none" xmlns="http://www.w3.org/2000/svg">
<path d="M15 8.33333V1.66667C15 0.75 14.25 0 13.3333 0H1.66667C0.75 0 0 0.75 0 1.66667V8.33333C0 9.25 0.75 10 1.66667 10H13.3333C14.25 10 15 9.25 15 8.33333ZM7.5 7.5C6.11667 7.5 5 6.38333 5 5C5 3.61667 6.11667 2.5 7.5 2.5C8.88333 2.5 10 3.61667 10 5C10 6.38333 8.88333 7.5 7.5 7.5ZM18.3333 2.5V11.6667C18.3333 12.5833 17.5833 13.3333 16.6667 13.3333H2.5V11.6667H16.6667V2.5H18.3333Z" fill="#0A68F7"/>
</svg>
