<svg width="48" height="38" viewBox="0 0 48 38" fill="none" xmlns="http://www.w3.org/2000/svg">
<path d="M21.6666 30.6666H26.3333V28.3332H28.6666C29.95 28.3332 31 27.2832 31 25.9999V18.9999C31 17.7166 29.95 16.6666 28.6666 16.6666H21.6666V14.3333H31V9.66658H26.3333V7.33325H21.6666V9.66658H19.3333C18.05 9.66658 17 10.7166 17 11.9999V18.9999C17 20.2832 18.05 21.3332 19.3333 21.3332H26.3333V23.6666H17V28.3332H21.6666V30.6666ZM42.6666 0.333252H5.33329C2.74329 0.333252 0.689959 2.40992 0.689959 4.99992L0.666626 32.9999C0.666626 35.5899 2.74329 37.6666 5.33329 37.6666H42.6666C45.2566 37.6666 47.3333 35.5899 47.3333 32.9999V4.99992C47.3333 2.40992 45.2566 0.333252 42.6666 0.333252ZM42.6666 32.9999H5.33329V4.99992H42.6666V32.9999Z" fill="#1B1A1C"/>
</svg>
