<svg width="20" height="14" viewBox="0 0 20 14" fill="none" xmlns="http://www.w3.org/2000/svg">
<path d="M15.833 8.66658V1.99992C15.833 1.08325 15.083 0.333252 14.1663 0.333252H2.49967C1.58301 0.333252 0.833008 1.08325 0.833008 1.99992V8.66658C0.833008 9.58325 1.58301 10.3333 2.49967 10.3333H14.1663C15.083 10.3333 15.833 9.58325 15.833 8.66658ZM8.33301 7.83325C6.94967 7.83325 5.83301 6.71658 5.83301 5.33325C5.83301 3.94992 6.94967 2.83325 8.33301 2.83325C9.71634 2.83325 10.833 3.94992 10.833 5.33325C10.833 6.71658 9.71634 7.83325 8.33301 7.83325ZM19.1663 2.83325V11.9999C19.1663 12.9166 18.4163 13.6666 17.4997 13.6666H3.33301V11.9999H17.4997V2.83325H19.1663Z" fill="white"/>
</svg>
