<svg width="18" height="14" viewBox="0 0 18 14" fill="none" xmlns="http://www.w3.org/2000/svg">
<path d="M15.6665 7.00016C15.6665 6.0835 16.4165 5.3335 17.3332 5.3335V2.00016C17.3332 1.0835 16.5832 0.333496 15.6665 0.333496H2.33317C1.4165 0.333496 0.674837 1.0835 0.674837 2.00016V5.3335C1.5915 5.3335 2.33317 6.0835 2.33317 7.00016C2.33317 7.91683 1.5915 8.66683 0.666504 8.66683V12.0002C0.666504 12.9168 1.4165 13.6668 2.33317 13.6668H15.6665C16.5832 13.6668 17.3332 12.9168 17.3332 12.0002V8.66683C16.4165 8.66683 15.6665 7.91683 15.6665 7.00016ZM11.9832 11.0002L8.99984 9.0835L6.0165 11.0002L6.9165 7.56683L4.17484 5.32516L7.70817 5.11683L8.99984 1.8335L10.2832 5.12516L13.8165 5.3335L11.0748 7.57516L11.9832 11.0002V11.0002Z" fill="white"/>
</svg>
