<svg width="20" height="14" viewBox="0 0 20 14" fill="none" xmlns="http://www.w3.org/2000/svg">
<path d="M15.8333 3.66658L12.5 6.99992H15C15 9.75825 12.7583 11.9999 9.99999 11.9999C9.15833 11.9999 8.35833 11.7916 7.66666 11.4166L6.44999 12.6333C7.47499 13.2833 8.69166 13.6666 9.99999 13.6666C13.6833 13.6666 16.6667 10.6833 16.6667 6.99992H19.1667L15.8333 3.66658ZM4.99999 6.99992C4.99999 4.24159 7.24166 1.99992 9.99999 1.99992C10.8417 1.99992 11.6417 2.20825 12.3333 2.58325L13.55 1.36659C12.525 0.716585 11.3083 0.333252 9.99999 0.333252C6.31666 0.333252 3.33333 3.31658 3.33333 6.99992H0.833328L4.16666 10.3333L7.49999 6.99992H4.99999Z" fill="white"/>
</svg>
